<svg xmlns="http://www.w3.org/2000/svg"  viewBox="0 0 40 40" width="64px" height="64px"><path fill="#f2faff" d="M15.5 38.5L15.5 7.5 30.793 7.5 38.5 15.207 38.5 38.5z"/><path fill="#788b9c" d="M30.586,8L38,15.414V38H16V8H30.586 M31,7H15v32h24V15L31,7L31,7z"/><path fill="#fff" d="M30.5 15.5L30.5 7.5 30.793 7.5 38.5 15.207 38.5 15.5z"/><path fill="#788b9c" d="M31,8.414L37.586,15H31V8.414 M31,7h-1v9h9v-1L31,7L31,7z"/><path fill="#4e7ab5" d="M28.143 24.071L34.929 24.071 34.929 26.786 28.143 26.786 28.143 30.857 22.714 25.429 28.143 20z"/><path fill="#fff" d="M1.5 32.5L1.5 1.5 16.793 1.5 24.5 9.207 24.5 32.5z"/><path fill="#788b9c" d="M16.586,2L24,9.414V32H2V2H16.586 M17,1H1v32h24V9L17,1L17,1z"/><g><path fill="#fff" d="M16.5 9.5L16.5 1.5 16.793 1.5 24.5 9.207 24.5 9.5z"/><path fill="#788b9c" d="M17,2.414L23.586,9H17V2.414 M17,1h-1v9h9V9L17,1L17,1z"/></g><g><path fill="#4e7ab5" d="M14.571 18.643L6.429 18.643 6.429 21.357 14.571 21.357 14.571 25.429 20 20 14.571 14.571z"/></g></svg>