<svg xmlns="http://www.w3.org/2000/svg"  viewBox="0 0 40 40" width="64px" height="64px"><path fill="#8bb7f0" d="M1.699 9.107L3.457 6.698 20 18.696 36.543 6.698 38.301 9.107 20 22.379z"/><path fill="#4e7ab5" d="M36.433,7.395l1.168,1.602L20,21.762L2.399,8.997l1.168-1.602l15.846,11.492L20,19.313l0.587-0.426 L36.433,7.395 M36.653,6L20,18.078L3.347,6L1,9.218l19,13.779L39,9.218L36.653,6L36.653,6z"/><g><path fill="#8bb7f0" d="M1.699 20.104L3.457 17.693 20 29.696 36.543 17.693 38.301 20.104 20 33.382z"/><path fill="#4e7ab5" d="M36.433,18.391l1.169,1.603L20,32.765L2.399,19.994l1.169-1.603l15.845,11.497L20,30.314 l0.587-0.426L36.433,18.391 M36.653,16.996L20,29.079L3.347,16.996L1,20.215L20,34l19-13.785L36.653,16.996L36.653,16.996z"/></g></svg>