<svg xmlns="http://www.w3.org/2000/svg"  viewBox="0 0 40 40" width="64px" height="64px"><path fill="#8bb7f0" d="M20 21.304L3.457 33.302 1.699 30.893 20 17.621 38.301 30.893 36.543 33.302z"/><path fill="#4e7ab5" d="M20,18.238l17.601,12.765l-1.168,1.602L20.587,21.113L20,20.687l-0.587,0.426L3.567,32.605 l-1.168-1.602L20,18.238 M20,17.003L1,30.782L3.347,34L20,21.922L36.653,34L39,30.782L20,17.003L20,17.003z"/><g><path fill="#8bb7f0" d="M20 10.304L3.457 22.307 1.699 19.896 20 6.618 38.301 19.896 36.543 22.307z"/><path fill="#4e7ab5" d="M20,7.235l17.601,12.771l-1.169,1.603L20.587,10.112L20,9.686l-0.587,0.426L3.567,21.609 l-1.169-1.603L20,7.235 M20,6L1,19.785l2.347,3.219L20,10.921l16.653,12.083L39,19.785L20,6L20,6z"/></g></svg>