<svg xmlns="http://www.w3.org/2000/svg"  viewBox="0 0 40 40" width="64px" height="64px"><path fill="#f2faff" d="M14.341,38.5c-0.637,0-1.236-0.248-1.687-0.698L2.198,27.346c-0.93-0.93-0.93-2.443,0-3.373 L23.973,2.199c0.45-0.451,1.05-0.699,1.687-0.699s1.236,0.248,1.687,0.699l10.456,10.456c0.93,0.93,0.93,2.443,0,3.373 L16.027,37.802C15.577,38.252,14.978,38.5,14.341,38.5z"/><path fill="#788b9c" d="M25.659,2c0.504,0,0.977,0.196,1.333,0.552l10.456,10.456C37.804,13.364,38,13.837,38,14.341 c0,0.504-0.196,0.977-0.552,1.333L15.674,37.448C15.318,37.804,14.844,38,14.341,38c-0.504,0-0.977-0.196-1.333-0.552 L2.552,26.992C2.196,26.636,2,26.163,2,25.659s0.196-0.977,0.552-1.333L24.326,2.552C24.682,2.196,25.156,2,25.659,2 M25.659,1 c-0.738,0-1.477,0.282-2.04,0.845L1.845,23.619c-1.127,1.127-1.127,2.953,0,4.08l10.456,10.456C12.864,38.718,13.603,39,14.341,39 c0.738,0,1.477-0.282,2.04-0.845l21.774-21.774c1.127-1.127,1.127-2.953,0-4.08L27.699,1.845C27.136,1.282,26.397,1,25.659,1 L25.659,1z"/><path fill="#b0c1d4" d="M13.035,13.136L23.973,2.199c0.45-0.451,1.05-0.699,1.687-0.699s1.236,0.248,1.687,0.699 l10.456,10.456c0.93,0.93,0.93,2.443,0,3.373L26.864,26.964L13.035,13.136z"/><path fill="#66798f" d="M25.659,2c0.504,0,0.977,0.196,1.333,0.552l10.456,10.456C37.804,13.364,38,13.837,38,14.341 c0,0.503-0.196,0.977-0.552,1.333L26.864,26.257L13.743,13.136L24.326,2.552C24.682,2.196,25.156,2,25.659,2 M25.659,1 c-0.738,0-1.477,0.282-2.04,0.845L12.329,13.136l14.536,14.536l11.291-11.291c1.127-1.127,1.127-2.953,0-4.08L27.699,1.845 C27.136,1.282,26.397,1,25.659,1L25.659,1z"/><path fill="#cad5e3" d="M37.448,15.674l-1.237,1.237L23.089,3.789l1.237-1.237C24.682,2.196,25.156,2,25.659,2	s0.977,0.196,1.333,0.552l10.456,10.456C37.804,13.364,38,13.837,38,14.341C38,14.844,37.804,15.318,37.448,15.674z"/></svg>